G04 #@! TF.GenerationSoftware,KiCad,Pcbnew,9.0.2*
G04 #@! TF.CreationDate,2025-10-25T16:25:04-04:00*
G04 #@! TF.ProjectId,Display,44697370-6c61-4792-9e6b-696361645f70,rev?*
G04 #@! TF.SameCoordinates,Original*
G04 #@! TF.FileFunction,Soldermask,Top*
G04 #@! TF.FilePolarity,Negative*
%FSLAX46Y46*%
G04 Gerber Fmt 4.6, Leading zero omitted, Abs format (unit mm)*
G04 Created by KiCad (PCBNEW 9.0.2) date 2025-10-25 16:25:04*
%MOMM*%
%LPD*%
G01*
G04 APERTURE LIST*
%ADD10R,1.700000X1.700000*%
%ADD11C,1.700000*%
G04 APERTURE END LIST*
D10*
X137060000Y-71410000D03*
D11*
X139600000Y-71410000D03*
X137060000Y-73950000D03*
X139600000Y-73950000D03*
X137060000Y-76490000D03*
X139600000Y-76490000D03*
D10*
X174150000Y-60700000D03*
D11*
X171610000Y-60700000D03*
X169070000Y-60700000D03*
X166530000Y-60700000D03*
X163990000Y-60700000D03*
X161450000Y-60700000D03*
D10*
X191900000Y-87150000D03*
D11*
X191900000Y-84610000D03*
X189360000Y-87150000D03*
X189360000Y-84610000D03*
X186820000Y-87150000D03*
X186820000Y-84610000D03*
X184280000Y-87150000D03*
X184280000Y-84610000D03*
X181740000Y-87150000D03*
X181740000Y-84610000D03*
X179200000Y-87150000D03*
X179200000Y-84610000D03*
X176660000Y-87150000D03*
X176660000Y-84610000D03*
X174120000Y-87150000D03*
X174120000Y-84610000D03*
X171580000Y-87150000D03*
X171580000Y-84610000D03*
X169040000Y-87150000D03*
X169040000Y-84610000D03*
X166500000Y-87150000D03*
X166500000Y-84610000D03*
X163960000Y-87150000D03*
X163960000Y-84610000D03*
X161420000Y-87150000D03*
X161420000Y-84610000D03*
X158880000Y-87150000D03*
X158880000Y-84610000D03*
X156340000Y-87150000D03*
X156340000Y-84610000D03*
X153800000Y-87150000D03*
X153800000Y-84610000D03*
X151260000Y-87150000D03*
X151260000Y-84610000D03*
X148720000Y-87150000D03*
X148720000Y-84610000D03*
X146180000Y-87150000D03*
X146180000Y-84610000D03*
X143640000Y-87150000D03*
X143640000Y-84610000D03*
D10*
X198500000Y-76490000D03*
D11*
X195960000Y-76490000D03*
X198500000Y-73950000D03*
X195960000Y-73950000D03*
X198500000Y-71410000D03*
X195960000Y-71410000D03*
M02*
