M48
; DRILL file {KiCad 9.0.2} date 2025-10-25T16:26:29-0400
; FORMAT={-:-/ absolute / metric / decimal}
; #@! TF.CreationDate,2025-10-25T16:26:29-04:00
; #@! TF.GenerationSoftware,Kicad,Pcbnew,9.0.2
; #@! TF.FileFunction,Plated,1,2,PTH
FMAT,2
METRIC
; #@! TA.AperFunction,Plated,PTH,ViaDrill
T1C0.381
; #@! TA.AperFunction,Plated,PTH,ComponentDrill
T2C1.000
%
G90
G05
T1
X153.35Y-65.4
X162.8Y-65.4
T2
X137.06Y-71.41
X137.06Y-73.95
X137.06Y-76.49
X139.6Y-71.41
X139.6Y-73.95
X139.6Y-76.49
X143.64Y-84.61
X143.64Y-87.15
X146.18Y-84.61
X146.18Y-87.15
X148.72Y-84.61
X148.72Y-87.15
X151.26Y-84.61
X151.26Y-87.15
X153.8Y-84.61
X153.8Y-87.15
X156.34Y-84.61
X156.34Y-87.15
X158.88Y-84.61
X158.88Y-87.15
X161.42Y-84.61
X161.42Y-87.15
X161.45Y-60.7
X163.96Y-84.61
X163.96Y-87.15
X163.99Y-60.7
X166.5Y-84.61
X166.5Y-87.15
X166.53Y-60.7
X169.04Y-84.61
X169.04Y-87.15
X169.07Y-60.7
X171.58Y-84.61
X171.58Y-87.15
X171.61Y-60.7
X174.12Y-84.61
X174.12Y-87.15
X174.15Y-60.7
X176.66Y-84.61
X176.66Y-87.15
X179.2Y-84.61
X179.2Y-87.15
X181.74Y-84.61
X181.74Y-87.15
X184.28Y-84.61
X184.28Y-87.15
X186.82Y-84.61
X186.82Y-87.15
X189.36Y-84.61
X189.36Y-87.15
X191.9Y-84.61
X191.9Y-87.15
X195.96Y-71.41
X195.96Y-73.95
X195.96Y-76.49
X198.5Y-71.41
X198.5Y-73.95
X198.5Y-76.49
M30
