%TF.GenerationSoftware,KiCad,Pcbnew,9.0.2*%
%TF.CreationDate,2025-10-25T16:26:29-04:00*%
%TF.ProjectId,Display,44697370-6c61-4792-9e6b-696361645f70,rev?*%
%TF.SameCoordinates,Original*%
%TF.FileFunction,Drillmap*%
%TF.FilePolarity,Positive*%
%FSLAX45Y45*%
G04 Gerber Fmt 4.5, Leading zero omitted, Abs format (unit mm)*
G04 Created by KiCad (PCBNEW 9.0.2) date 2025-10-25 16:26:29*
%MOMM*%
%LPD*%
G01*
G04 APERTURE LIST*
%ADD10C,0.050000*%
%ADD11C,0.200000*%
G04 APERTURE END LIST*
D10*
X13530000Y-5895000D02*
X20030000Y-5895000D01*
X20030000Y-8895000D01*
X13530000Y-8895000D01*
X13530000Y-5895000D01*
D11*
X13788277Y-9208984D02*
X13788277Y-9008984D01*
X13788277Y-9008984D02*
X13835896Y-9008984D01*
X13835896Y-9008984D02*
X13864467Y-9018508D01*
X13864467Y-9018508D02*
X13883515Y-9037555D01*
X13883515Y-9037555D02*
X13893039Y-9056603D01*
X13893039Y-9056603D02*
X13902562Y-9094698D01*
X13902562Y-9094698D02*
X13902562Y-9123270D01*
X13902562Y-9123270D02*
X13893039Y-9161365D01*
X13893039Y-9161365D02*
X13883515Y-9180412D01*
X13883515Y-9180412D02*
X13864467Y-9199460D01*
X13864467Y-9199460D02*
X13835896Y-9208984D01*
X13835896Y-9208984D02*
X13788277Y-9208984D01*
X13988277Y-9208984D02*
X13988277Y-9075650D01*
X13988277Y-9113746D02*
X13997801Y-9094698D01*
X13997801Y-9094698D02*
X14007324Y-9085174D01*
X14007324Y-9085174D02*
X14026372Y-9075650D01*
X14026372Y-9075650D02*
X14045420Y-9075650D01*
X14112086Y-9208984D02*
X14112086Y-9075650D01*
X14112086Y-9008984D02*
X14102562Y-9018508D01*
X14102562Y-9018508D02*
X14112086Y-9028031D01*
X14112086Y-9028031D02*
X14121610Y-9018508D01*
X14121610Y-9018508D02*
X14112086Y-9008984D01*
X14112086Y-9008984D02*
X14112086Y-9028031D01*
X14235896Y-9208984D02*
X14216848Y-9199460D01*
X14216848Y-9199460D02*
X14207324Y-9180412D01*
X14207324Y-9180412D02*
X14207324Y-9008984D01*
X14340658Y-9208984D02*
X14321610Y-9199460D01*
X14321610Y-9199460D02*
X14312086Y-9180412D01*
X14312086Y-9180412D02*
X14312086Y-9008984D01*
X14569229Y-9208984D02*
X14569229Y-9008984D01*
X14569229Y-9008984D02*
X14635896Y-9151841D01*
X14635896Y-9151841D02*
X14702562Y-9008984D01*
X14702562Y-9008984D02*
X14702562Y-9208984D01*
X14883515Y-9208984D02*
X14883515Y-9104222D01*
X14883515Y-9104222D02*
X14873991Y-9085174D01*
X14873991Y-9085174D02*
X14854943Y-9075650D01*
X14854943Y-9075650D02*
X14816848Y-9075650D01*
X14816848Y-9075650D02*
X14797801Y-9085174D01*
X14883515Y-9199460D02*
X14864467Y-9208984D01*
X14864467Y-9208984D02*
X14816848Y-9208984D01*
X14816848Y-9208984D02*
X14797801Y-9199460D01*
X14797801Y-9199460D02*
X14788277Y-9180412D01*
X14788277Y-9180412D02*
X14788277Y-9161365D01*
X14788277Y-9161365D02*
X14797801Y-9142317D01*
X14797801Y-9142317D02*
X14816848Y-9132793D01*
X14816848Y-9132793D02*
X14864467Y-9132793D01*
X14864467Y-9132793D02*
X14883515Y-9123270D01*
X14978753Y-9075650D02*
X14978753Y-9275650D01*
X14978753Y-9085174D02*
X14997801Y-9075650D01*
X14997801Y-9075650D02*
X15035896Y-9075650D01*
X15035896Y-9075650D02*
X15054943Y-9085174D01*
X15054943Y-9085174D02*
X15064467Y-9094698D01*
X15064467Y-9094698D02*
X15073991Y-9113746D01*
X15073991Y-9113746D02*
X15073991Y-9170889D01*
X15073991Y-9170889D02*
X15064467Y-9189936D01*
X15064467Y-9189936D02*
X15054943Y-9199460D01*
X15054943Y-9199460D02*
X15035896Y-9208984D01*
X15035896Y-9208984D02*
X14997801Y-9208984D01*
X14997801Y-9208984D02*
X14978753Y-9199460D01*
X15159705Y-9189936D02*
X15169229Y-9199460D01*
X15169229Y-9199460D02*
X15159705Y-9208984D01*
X15159705Y-9208984D02*
X15150182Y-9199460D01*
X15150182Y-9199460D02*
X15159705Y-9189936D01*
X15159705Y-9189936D02*
X15159705Y-9208984D01*
X15159705Y-9085174D02*
X15169229Y-9094698D01*
X15169229Y-9094698D02*
X15159705Y-9104222D01*
X15159705Y-9104222D02*
X15150182Y-9094698D01*
X15150182Y-9094698D02*
X15159705Y-9085174D01*
X15159705Y-9085174D02*
X15159705Y-9104222D01*
M02*
