G04 #@! TF.GenerationSoftware,KiCad,Pcbnew,9.0.2*
G04 #@! TF.CreationDate,2025-10-25T16:25:04-04:00*
G04 #@! TF.ProjectId,Display,44697370-6c61-4792-9e6b-696361645f70,rev?*
G04 #@! TF.SameCoordinates,Original*
G04 #@! TF.FileFunction,Legend,Bot*
G04 #@! TF.FilePolarity,Positive*
%FSLAX46Y46*%
G04 Gerber Fmt 4.6, Leading zero omitted, Abs format (unit mm)*
G04 Created by KiCad (PCBNEW 9.0.2) date 2025-10-25 16:25:04*
%MOMM*%
%LPD*%
G01*
G04 APERTURE LIST*
%ADD10C,0.625000*%
%ADD11R,1.700000X1.700000*%
%ADD12C,1.700000*%
G04 APERTURE END LIST*
D10*
X181881673Y-65217107D02*
X181167387Y-65455202D01*
X181167387Y-65455202D02*
X180929292Y-65693298D01*
X180929292Y-65693298D02*
X180691196Y-66169488D01*
X180691196Y-66169488D02*
X180691196Y-66883774D01*
X180691196Y-66883774D02*
X180929292Y-67359964D01*
X180929292Y-67359964D02*
X181167387Y-67598060D01*
X181167387Y-67598060D02*
X181643577Y-67836155D01*
X181643577Y-67836155D02*
X183548339Y-67836155D01*
X183548339Y-67836155D02*
X183548339Y-62836155D01*
X183548339Y-62836155D02*
X181881673Y-62836155D01*
X181881673Y-62836155D02*
X181405482Y-63074250D01*
X181405482Y-63074250D02*
X181167387Y-63312345D01*
X181167387Y-63312345D02*
X180929292Y-63788536D01*
X180929292Y-63788536D02*
X180929292Y-64264726D01*
X180929292Y-64264726D02*
X181167387Y-64740917D01*
X181167387Y-64740917D02*
X181405482Y-64979012D01*
X181405482Y-64979012D02*
X181881673Y-65217107D01*
X181881673Y-65217107D02*
X183548339Y-65217107D01*
X176643577Y-67598060D02*
X177119768Y-67836155D01*
X177119768Y-67836155D02*
X178072149Y-67836155D01*
X178072149Y-67836155D02*
X178548339Y-67598060D01*
X178548339Y-67598060D02*
X178786435Y-67121869D01*
X178786435Y-67121869D02*
X178786435Y-65217107D01*
X178786435Y-65217107D02*
X178548339Y-64740917D01*
X178548339Y-64740917D02*
X178072149Y-64502821D01*
X178072149Y-64502821D02*
X177119768Y-64502821D01*
X177119768Y-64502821D02*
X176643577Y-64740917D01*
X176643577Y-64740917D02*
X176405482Y-65217107D01*
X176405482Y-65217107D02*
X176405482Y-65693298D01*
X176405482Y-65693298D02*
X178786435Y-66169488D01*
X172119768Y-67836155D02*
X172119768Y-65217107D01*
X172119768Y-65217107D02*
X172357863Y-64740917D01*
X172357863Y-64740917D02*
X172834054Y-64502821D01*
X172834054Y-64502821D02*
X173786435Y-64502821D01*
X173786435Y-64502821D02*
X174262625Y-64740917D01*
X172119768Y-67598060D02*
X172595959Y-67836155D01*
X172595959Y-67836155D02*
X173786435Y-67836155D01*
X173786435Y-67836155D02*
X174262625Y-67598060D01*
X174262625Y-67598060D02*
X174500721Y-67121869D01*
X174500721Y-67121869D02*
X174500721Y-66645679D01*
X174500721Y-66645679D02*
X174262625Y-66169488D01*
X174262625Y-66169488D02*
X173786435Y-65931393D01*
X173786435Y-65931393D02*
X172595959Y-65931393D01*
X172595959Y-65931393D02*
X172119768Y-65693298D01*
X169738815Y-64502821D02*
X169738815Y-67836155D01*
X169738815Y-64979012D02*
X169500720Y-64740917D01*
X169500720Y-64740917D02*
X169024530Y-64502821D01*
X169024530Y-64502821D02*
X168310244Y-64502821D01*
X168310244Y-64502821D02*
X167834053Y-64740917D01*
X167834053Y-64740917D02*
X167595958Y-65217107D01*
X167595958Y-65217107D02*
X167595958Y-67836155D01*
X163548339Y-65217107D02*
X162834053Y-65455202D01*
X162834053Y-65455202D02*
X162595958Y-65693298D01*
X162595958Y-65693298D02*
X162357862Y-66169488D01*
X162357862Y-66169488D02*
X162357862Y-66883774D01*
X162357862Y-66883774D02*
X162595958Y-67359964D01*
X162595958Y-67359964D02*
X162834053Y-67598060D01*
X162834053Y-67598060D02*
X163310243Y-67836155D01*
X163310243Y-67836155D02*
X165215005Y-67836155D01*
X165215005Y-67836155D02*
X165215005Y-62836155D01*
X165215005Y-62836155D02*
X163548339Y-62836155D01*
X163548339Y-62836155D02*
X163072148Y-63074250D01*
X163072148Y-63074250D02*
X162834053Y-63312345D01*
X162834053Y-63312345D02*
X162595958Y-63788536D01*
X162595958Y-63788536D02*
X162595958Y-64264726D01*
X162595958Y-64264726D02*
X162834053Y-64740917D01*
X162834053Y-64740917D02*
X163072148Y-64979012D01*
X163072148Y-64979012D02*
X163548339Y-65217107D01*
X163548339Y-65217107D02*
X165215005Y-65217107D01*
X160215005Y-67836155D02*
X160215005Y-64502821D01*
X160215005Y-62836155D02*
X160453101Y-63074250D01*
X160453101Y-63074250D02*
X160215005Y-63312345D01*
X160215005Y-63312345D02*
X159976910Y-63074250D01*
X159976910Y-63074250D02*
X160215005Y-62836155D01*
X160215005Y-62836155D02*
X160215005Y-63312345D01*
X157834053Y-67836155D02*
X157834053Y-62836155D01*
X157357863Y-65931393D02*
X155929291Y-67836155D01*
X155929291Y-64502821D02*
X157834053Y-66407583D01*
X151881672Y-67598060D02*
X152357863Y-67836155D01*
X152357863Y-67836155D02*
X153310244Y-67836155D01*
X153310244Y-67836155D02*
X153786434Y-67598060D01*
X153786434Y-67598060D02*
X154024530Y-67121869D01*
X154024530Y-67121869D02*
X154024530Y-65217107D01*
X154024530Y-65217107D02*
X153786434Y-64740917D01*
X153786434Y-64740917D02*
X153310244Y-64502821D01*
X153310244Y-64502821D02*
X152357863Y-64502821D01*
X152357863Y-64502821D02*
X151881672Y-64740917D01*
X151881672Y-64740917D02*
X151643577Y-65217107D01*
X151643577Y-65217107D02*
X151643577Y-65693298D01*
X151643577Y-65693298D02*
X154024530Y-66169488D01*
X183548339Y-75885875D02*
X183548339Y-70885875D01*
X183548339Y-70885875D02*
X182357863Y-70885875D01*
X182357863Y-70885875D02*
X181643577Y-71123970D01*
X181643577Y-71123970D02*
X181167387Y-71600160D01*
X181167387Y-71600160D02*
X180929292Y-72076351D01*
X180929292Y-72076351D02*
X180691196Y-73028732D01*
X180691196Y-73028732D02*
X180691196Y-73743018D01*
X180691196Y-73743018D02*
X180929292Y-74695399D01*
X180929292Y-74695399D02*
X181167387Y-75171589D01*
X181167387Y-75171589D02*
X181643577Y-75647780D01*
X181643577Y-75647780D02*
X182357863Y-75885875D01*
X182357863Y-75885875D02*
X183548339Y-75885875D01*
X178548339Y-75885875D02*
X178548339Y-72552541D01*
X178548339Y-70885875D02*
X178786435Y-71123970D01*
X178786435Y-71123970D02*
X178548339Y-71362065D01*
X178548339Y-71362065D02*
X178310244Y-71123970D01*
X178310244Y-71123970D02*
X178548339Y-70885875D01*
X178548339Y-70885875D02*
X178548339Y-71362065D01*
X176405483Y-75647780D02*
X175929292Y-75885875D01*
X175929292Y-75885875D02*
X174976911Y-75885875D01*
X174976911Y-75885875D02*
X174500721Y-75647780D01*
X174500721Y-75647780D02*
X174262625Y-75171589D01*
X174262625Y-75171589D02*
X174262625Y-74933494D01*
X174262625Y-74933494D02*
X174500721Y-74457303D01*
X174500721Y-74457303D02*
X174976911Y-74219208D01*
X174976911Y-74219208D02*
X175691197Y-74219208D01*
X175691197Y-74219208D02*
X176167387Y-73981113D01*
X176167387Y-73981113D02*
X176405483Y-73504922D01*
X176405483Y-73504922D02*
X176405483Y-73266827D01*
X176405483Y-73266827D02*
X176167387Y-72790637D01*
X176167387Y-72790637D02*
X175691197Y-72552541D01*
X175691197Y-72552541D02*
X174976911Y-72552541D01*
X174976911Y-72552541D02*
X174500721Y-72790637D01*
X172119768Y-72552541D02*
X172119768Y-77552541D01*
X172119768Y-72790637D02*
X171643578Y-72552541D01*
X171643578Y-72552541D02*
X170691197Y-72552541D01*
X170691197Y-72552541D02*
X170215006Y-72790637D01*
X170215006Y-72790637D02*
X169976911Y-73028732D01*
X169976911Y-73028732D02*
X169738816Y-73504922D01*
X169738816Y-73504922D02*
X169738816Y-74933494D01*
X169738816Y-74933494D02*
X169976911Y-75409684D01*
X169976911Y-75409684D02*
X170215006Y-75647780D01*
X170215006Y-75647780D02*
X170691197Y-75885875D01*
X170691197Y-75885875D02*
X171643578Y-75885875D01*
X171643578Y-75885875D02*
X172119768Y-75647780D01*
X166881673Y-75885875D02*
X167357863Y-75647780D01*
X167357863Y-75647780D02*
X167595958Y-75171589D01*
X167595958Y-75171589D02*
X167595958Y-70885875D01*
X162834053Y-75885875D02*
X162834053Y-73266827D01*
X162834053Y-73266827D02*
X163072148Y-72790637D01*
X163072148Y-72790637D02*
X163548339Y-72552541D01*
X163548339Y-72552541D02*
X164500720Y-72552541D01*
X164500720Y-72552541D02*
X164976910Y-72790637D01*
X162834053Y-75647780D02*
X163310244Y-75885875D01*
X163310244Y-75885875D02*
X164500720Y-75885875D01*
X164500720Y-75885875D02*
X164976910Y-75647780D01*
X164976910Y-75647780D02*
X165215006Y-75171589D01*
X165215006Y-75171589D02*
X165215006Y-74695399D01*
X165215006Y-74695399D02*
X164976910Y-74219208D01*
X164976910Y-74219208D02*
X164500720Y-73981113D01*
X164500720Y-73981113D02*
X163310244Y-73981113D01*
X163310244Y-73981113D02*
X162834053Y-73743018D01*
X160929291Y-72552541D02*
X159738815Y-75885875D01*
X158548338Y-72552541D02*
X159738815Y-75885875D01*
X159738815Y-75885875D02*
X160215005Y-77076351D01*
X160215005Y-77076351D02*
X160453100Y-77314446D01*
X160453100Y-77314446D02*
X160929291Y-77552541D01*
X180929292Y-79173690D02*
X181405482Y-78935595D01*
X181405482Y-78935595D02*
X182119768Y-78935595D01*
X182119768Y-78935595D02*
X182834054Y-79173690D01*
X182834054Y-79173690D02*
X183310244Y-79649880D01*
X183310244Y-79649880D02*
X183548339Y-80126071D01*
X183548339Y-80126071D02*
X183786435Y-81078452D01*
X183786435Y-81078452D02*
X183786435Y-81792738D01*
X183786435Y-81792738D02*
X183548339Y-82745119D01*
X183548339Y-82745119D02*
X183310244Y-83221309D01*
X183310244Y-83221309D02*
X182834054Y-83697500D01*
X182834054Y-83697500D02*
X182119768Y-83935595D01*
X182119768Y-83935595D02*
X181643577Y-83935595D01*
X181643577Y-83935595D02*
X180929292Y-83697500D01*
X180929292Y-83697500D02*
X180691196Y-83459404D01*
X180691196Y-83459404D02*
X180691196Y-81792738D01*
X180691196Y-81792738D02*
X181643577Y-81792738D01*
X178548339Y-83935595D02*
X178548339Y-80602261D01*
X178548339Y-78935595D02*
X178786435Y-79173690D01*
X178786435Y-79173690D02*
X178548339Y-79411785D01*
X178548339Y-79411785D02*
X178310244Y-79173690D01*
X178310244Y-79173690D02*
X178548339Y-78935595D01*
X178548339Y-78935595D02*
X178548339Y-79411785D01*
X176167387Y-80602261D02*
X176167387Y-83935595D01*
X176167387Y-81078452D02*
X175929292Y-80840357D01*
X175929292Y-80840357D02*
X175453102Y-80602261D01*
X175453102Y-80602261D02*
X174738816Y-80602261D01*
X174738816Y-80602261D02*
X174262625Y-80840357D01*
X174262625Y-80840357D02*
X174024530Y-81316547D01*
X174024530Y-81316547D02*
X174024530Y-83935595D01*
X170929292Y-83935595D02*
X171405482Y-83697500D01*
X171405482Y-83697500D02*
X171643577Y-83459404D01*
X171643577Y-83459404D02*
X171881673Y-82983214D01*
X171881673Y-82983214D02*
X171881673Y-81554642D01*
X171881673Y-81554642D02*
X171643577Y-81078452D01*
X171643577Y-81078452D02*
X171405482Y-80840357D01*
X171405482Y-80840357D02*
X170929292Y-80602261D01*
X170929292Y-80602261D02*
X170215006Y-80602261D01*
X170215006Y-80602261D02*
X169738815Y-80840357D01*
X169738815Y-80840357D02*
X169500720Y-81078452D01*
X169500720Y-81078452D02*
X169262625Y-81554642D01*
X169262625Y-81554642D02*
X169262625Y-82983214D01*
X169262625Y-82983214D02*
X169500720Y-83459404D01*
X169500720Y-83459404D02*
X169738815Y-83697500D01*
X169738815Y-83697500D02*
X170215006Y-83935595D01*
X170215006Y-83935595D02*
X170929292Y-83935595D01*
X167119767Y-83935595D02*
X167119767Y-78935595D01*
X167119767Y-80840357D02*
X166643577Y-80602261D01*
X166643577Y-80602261D02*
X165691196Y-80602261D01*
X165691196Y-80602261D02*
X165215005Y-80840357D01*
X165215005Y-80840357D02*
X164976910Y-81078452D01*
X164976910Y-81078452D02*
X164738815Y-81554642D01*
X164738815Y-81554642D02*
X164738815Y-82983214D01*
X164738815Y-82983214D02*
X164976910Y-83459404D01*
X164976910Y-83459404D02*
X165215005Y-83697500D01*
X165215005Y-83697500D02*
X165691196Y-83935595D01*
X165691196Y-83935595D02*
X166643577Y-83935595D01*
X166643577Y-83935595D02*
X167119767Y-83697500D01*
X160691195Y-83697500D02*
X161167386Y-83935595D01*
X161167386Y-83935595D02*
X162119767Y-83935595D01*
X162119767Y-83935595D02*
X162595957Y-83697500D01*
X162595957Y-83697500D02*
X162834053Y-83221309D01*
X162834053Y-83221309D02*
X162834053Y-81316547D01*
X162834053Y-81316547D02*
X162595957Y-80840357D01*
X162595957Y-80840357D02*
X162119767Y-80602261D01*
X162119767Y-80602261D02*
X161167386Y-80602261D01*
X161167386Y-80602261D02*
X160691195Y-80840357D01*
X160691195Y-80840357D02*
X160453100Y-81316547D01*
X160453100Y-81316547D02*
X160453100Y-81792738D01*
X160453100Y-81792738D02*
X162834053Y-82268928D01*
X156167386Y-83935595D02*
X156167386Y-81316547D01*
X156167386Y-81316547D02*
X156405481Y-80840357D01*
X156405481Y-80840357D02*
X156881672Y-80602261D01*
X156881672Y-80602261D02*
X157834053Y-80602261D01*
X157834053Y-80602261D02*
X158310243Y-80840357D01*
X156167386Y-83697500D02*
X156643577Y-83935595D01*
X156643577Y-83935595D02*
X157834053Y-83935595D01*
X157834053Y-83935595D02*
X158310243Y-83697500D01*
X158310243Y-83697500D02*
X158548339Y-83221309D01*
X158548339Y-83221309D02*
X158548339Y-82745119D01*
X158548339Y-82745119D02*
X158310243Y-82268928D01*
X158310243Y-82268928D02*
X157834053Y-82030833D01*
X157834053Y-82030833D02*
X156643577Y-82030833D01*
X156643577Y-82030833D02*
X156167386Y-81792738D01*
X153786433Y-80602261D02*
X153786433Y-83935595D01*
X153786433Y-81078452D02*
X153548338Y-80840357D01*
X153548338Y-80840357D02*
X153072148Y-80602261D01*
X153072148Y-80602261D02*
X152357862Y-80602261D01*
X152357862Y-80602261D02*
X151881671Y-80840357D01*
X151881671Y-80840357D02*
X151643576Y-81316547D01*
X151643576Y-81316547D02*
X151643576Y-83935595D01*
X148548338Y-83935595D02*
X149024528Y-83697500D01*
X149024528Y-83697500D02*
X149262623Y-83459404D01*
X149262623Y-83459404D02*
X149500719Y-82983214D01*
X149500719Y-82983214D02*
X149500719Y-81554642D01*
X149500719Y-81554642D02*
X149262623Y-81078452D01*
X149262623Y-81078452D02*
X149024528Y-80840357D01*
X149024528Y-80840357D02*
X148548338Y-80602261D01*
X148548338Y-80602261D02*
X147834052Y-80602261D01*
X147834052Y-80602261D02*
X147357861Y-80840357D01*
X147357861Y-80840357D02*
X147119766Y-81078452D01*
X147119766Y-81078452D02*
X146881671Y-81554642D01*
X146881671Y-81554642D02*
X146881671Y-82983214D01*
X146881671Y-82983214D02*
X147119766Y-83459404D01*
X147119766Y-83459404D02*
X147357861Y-83697500D01*
X147357861Y-83697500D02*
X147834052Y-83935595D01*
X147834052Y-83935595D02*
X148548338Y-83935595D01*
%LPC*%
D11*
X137060000Y-71410000D03*
D12*
X139600000Y-71410000D03*
X137060000Y-73950000D03*
X139600000Y-73950000D03*
X137060000Y-76490000D03*
X139600000Y-76490000D03*
D11*
X174150000Y-60700000D03*
D12*
X171610000Y-60700000D03*
X169070000Y-60700000D03*
X166530000Y-60700000D03*
X163990000Y-60700000D03*
X161450000Y-60700000D03*
D11*
X191900000Y-87150000D03*
D12*
X191900000Y-84610000D03*
X189360000Y-87150000D03*
X189360000Y-84610000D03*
X186820000Y-87150000D03*
X186820000Y-84610000D03*
X184280000Y-87150000D03*
X184280000Y-84610000D03*
X181740000Y-87150000D03*
X181740000Y-84610000D03*
X179200000Y-87150000D03*
X179200000Y-84610000D03*
X176660000Y-87150000D03*
X176660000Y-84610000D03*
X174120000Y-87150000D03*
X174120000Y-84610000D03*
X171580000Y-87150000D03*
X171580000Y-84610000D03*
X169040000Y-87150000D03*
X169040000Y-84610000D03*
X166500000Y-87150000D03*
X166500000Y-84610000D03*
X163960000Y-87150000D03*
X163960000Y-84610000D03*
X161420000Y-87150000D03*
X161420000Y-84610000D03*
X158880000Y-87150000D03*
X158880000Y-84610000D03*
X156340000Y-87150000D03*
X156340000Y-84610000D03*
X153800000Y-87150000D03*
X153800000Y-84610000D03*
X151260000Y-87150000D03*
X151260000Y-84610000D03*
X148720000Y-87150000D03*
X148720000Y-84610000D03*
X146180000Y-87150000D03*
X146180000Y-84610000D03*
X143640000Y-87150000D03*
X143640000Y-84610000D03*
D11*
X198500000Y-76490000D03*
D12*
X195960000Y-76490000D03*
X198500000Y-73950000D03*
X195960000Y-73950000D03*
X198500000Y-71410000D03*
X195960000Y-71410000D03*
%LPD*%
M02*
